<mxfile host="app.diagrams.net" agent="Mozilla/5.0 (Windows NT 10.0; Win64; x64) AppleWebKit/537.36 (KHTML, like Gecko) Chrome/125.0.0.0 Safari/537.36 OPR/111.0.0.0" version="24.7.8">
  <diagram name="Página-1" id="8uzoGR8eUpVekS3FzU7l">
    <mxGraphModel dx="1393" dy="773" grid="1" gridSize="10" guides="1" tooltips="1" connect="1" arrows="1" fold="1" page="1" pageScale="1" pageWidth="827" pageHeight="1169" math="0" shadow="0">
      <root>
        <mxCell id="0" />
        <mxCell id="1" parent="0" />
        <mxCell id="Qx5bWiszo8uC14fIzBrh-10" style="rounded=0;orthogonalLoop=1;jettySize=auto;html=1;exitX=0.5;exitY=1;exitDx=0;exitDy=0;entryX=0.5;entryY=0;entryDx=0;entryDy=0;endArrow=none;endFill=0;" edge="1" parent="1" source="Qx5bWiszo8uC14fIzBrh-3" target="Qx5bWiszo8uC14fIzBrh-5">
          <mxGeometry relative="1" as="geometry" />
        </mxCell>
        <mxCell id="Qx5bWiszo8uC14fIzBrh-3" value="Controla" style="shape=rhombus;perimeter=rhombusPerimeter;whiteSpace=wrap;html=1;align=center;" vertex="1" parent="1">
          <mxGeometry x="174" y="290" width="120" height="60" as="geometry" />
        </mxCell>
        <mxCell id="Qx5bWiszo8uC14fIzBrh-9" style="rounded=0;orthogonalLoop=1;jettySize=auto;html=1;exitX=0.5;exitY=1;exitDx=0;exitDy=0;entryX=0.5;entryY=0;entryDx=0;entryDy=0;endArrow=none;endFill=0;" edge="1" parent="1" source="Qx5bWiszo8uC14fIzBrh-4" target="Qx5bWiszo8uC14fIzBrh-3">
          <mxGeometry relative="1" as="geometry" />
        </mxCell>
        <mxCell id="Qx5bWiszo8uC14fIzBrh-4" value="Biblioteca" style="whiteSpace=wrap;html=1;align=center;" vertex="1" parent="1">
          <mxGeometry x="184" y="210" width="100" height="40" as="geometry" />
        </mxCell>
        <mxCell id="Qx5bWiszo8uC14fIzBrh-20" style="edgeStyle=none;shape=connector;rounded=0;orthogonalLoop=1;jettySize=auto;html=1;exitX=1;exitY=0;exitDx=0;exitDy=0;entryX=0;entryY=0.5;entryDx=0;entryDy=0;strokeColor=default;align=center;verticalAlign=middle;fontFamily=Helvetica;fontSize=11;fontColor=default;labelBackgroundColor=default;endArrow=none;endFill=0;" edge="1" parent="1" source="Qx5bWiszo8uC14fIzBrh-5" target="Qx5bWiszo8uC14fIzBrh-12">
          <mxGeometry relative="1" as="geometry" />
        </mxCell>
        <mxCell id="Qx5bWiszo8uC14fIzBrh-5" value="Livros" style="whiteSpace=wrap;html=1;align=center;" vertex="1" parent="1">
          <mxGeometry x="184" y="390" width="100" height="40" as="geometry" />
        </mxCell>
        <mxCell id="Qx5bWiszo8uC14fIzBrh-71" style="edgeStyle=none;shape=connector;rounded=0;orthogonalLoop=1;jettySize=auto;html=1;exitX=1;exitY=0.5;exitDx=0;exitDy=0;entryX=0;entryY=0.5;entryDx=0;entryDy=0;strokeColor=default;align=center;verticalAlign=middle;fontFamily=Helvetica;fontSize=11;fontColor=default;labelBackgroundColor=default;endArrow=none;endFill=0;" edge="1" parent="1" source="Qx5bWiszo8uC14fIzBrh-6" target="Qx5bWiszo8uC14fIzBrh-65">
          <mxGeometry relative="1" as="geometry" />
        </mxCell>
        <mxCell id="Qx5bWiszo8uC14fIzBrh-81" style="edgeStyle=none;shape=connector;rounded=0;orthogonalLoop=1;jettySize=auto;html=1;exitX=1;exitY=0;exitDx=0;exitDy=0;strokeColor=default;align=center;verticalAlign=middle;fontFamily=Helvetica;fontSize=11;fontColor=default;labelBackgroundColor=default;endArrow=none;endFill=0;" edge="1" parent="1" source="Qx5bWiszo8uC14fIzBrh-6" target="Qx5bWiszo8uC14fIzBrh-80">
          <mxGeometry relative="1" as="geometry" />
        </mxCell>
        <mxCell id="Qx5bWiszo8uC14fIzBrh-6" value="Pessoa" style="whiteSpace=wrap;html=1;align=center;" vertex="1" parent="1">
          <mxGeometry x="184" y="570" width="100" height="40" as="geometry" />
        </mxCell>
        <mxCell id="Qx5bWiszo8uC14fIzBrh-12" value="Título" style="ellipse;whiteSpace=wrap;html=1;align=left;spacing=30;" vertex="1" parent="1">
          <mxGeometry x="304" y="380" width="20" height="10" as="geometry" />
        </mxCell>
        <mxCell id="Qx5bWiszo8uC14fIzBrh-21" style="edgeStyle=none;shape=connector;rounded=0;orthogonalLoop=1;jettySize=auto;html=1;exitX=0;exitY=0.5;exitDx=0;exitDy=0;entryX=1;entryY=0.5;entryDx=0;entryDy=0;strokeColor=default;align=center;verticalAlign=middle;fontFamily=Helvetica;fontSize=11;fontColor=default;labelBackgroundColor=default;endArrow=none;endFill=0;" edge="1" parent="1" source="Qx5bWiszo8uC14fIzBrh-16" target="Qx5bWiszo8uC14fIzBrh-5">
          <mxGeometry relative="1" as="geometry" />
        </mxCell>
        <mxCell id="Qx5bWiszo8uC14fIzBrh-16" value="Editora" style="ellipse;whiteSpace=wrap;html=1;align=left;spacing=30;" vertex="1" parent="1">
          <mxGeometry x="304" y="405" width="20" height="10" as="geometry" />
        </mxCell>
        <mxCell id="Qx5bWiszo8uC14fIzBrh-22" style="edgeStyle=none;shape=connector;rounded=0;orthogonalLoop=1;jettySize=auto;html=1;exitX=0;exitY=0.5;exitDx=0;exitDy=0;entryX=1;entryY=1;entryDx=0;entryDy=0;strokeColor=default;align=center;verticalAlign=middle;fontFamily=Helvetica;fontSize=11;fontColor=default;labelBackgroundColor=default;endArrow=none;endFill=0;" edge="1" parent="1" source="Qx5bWiszo8uC14fIzBrh-17" target="Qx5bWiszo8uC14fIzBrh-5">
          <mxGeometry relative="1" as="geometry" />
        </mxCell>
        <mxCell id="Qx5bWiszo8uC14fIzBrh-17" value="Autor(es)" style="ellipse;shape=doubleEllipse;margin=3;whiteSpace=wrap;html=1;align=left;fontFamily=Helvetica;fontSize=11;fontColor=default;labelBackgroundColor=default;spacing=30;" vertex="1" parent="1">
          <mxGeometry x="304" y="430" width="20" height="10" as="geometry" />
        </mxCell>
        <mxCell id="Qx5bWiszo8uC14fIzBrh-24" style="edgeStyle=none;shape=connector;rounded=0;orthogonalLoop=1;jettySize=auto;html=1;exitX=1;exitY=0.5;exitDx=0;exitDy=0;entryX=0;entryY=0;entryDx=0;entryDy=0;strokeColor=default;align=center;verticalAlign=middle;fontFamily=Helvetica;fontSize=11;fontColor=default;labelBackgroundColor=default;endArrow=none;endFill=0;" edge="1" parent="1" source="Qx5bWiszo8uC14fIzBrh-18" target="Qx5bWiszo8uC14fIzBrh-5">
          <mxGeometry relative="1" as="geometry" />
        </mxCell>
        <mxCell id="Qx5bWiszo8uC14fIzBrh-18" value="ISBN" style="ellipse;whiteSpace=wrap;html=1;align=right;fontStyle=4;fontFamily=Helvetica;fontSize=11;fontColor=default;labelBackgroundColor=default;spacing=30;" vertex="1" parent="1">
          <mxGeometry x="144" y="390" width="20" height="10" as="geometry" />
        </mxCell>
        <mxCell id="Qx5bWiszo8uC14fIzBrh-23" style="edgeStyle=none;shape=connector;rounded=0;orthogonalLoop=1;jettySize=auto;html=1;exitX=1;exitY=0.5;exitDx=0;exitDy=0;entryX=0;entryY=1;entryDx=0;entryDy=0;strokeColor=default;align=center;verticalAlign=middle;fontFamily=Helvetica;fontSize=11;fontColor=default;labelBackgroundColor=default;endArrow=none;endFill=0;" edge="1" parent="1" source="Qx5bWiszo8uC14fIzBrh-19" target="Qx5bWiszo8uC14fIzBrh-5">
          <mxGeometry relative="1" as="geometry" />
        </mxCell>
        <mxCell id="Qx5bWiszo8uC14fIzBrh-19" value="Status" style="ellipse;whiteSpace=wrap;html=1;align=right;dashed=1;fontFamily=Helvetica;fontSize=11;fontColor=default;labelBackgroundColor=default;spacing=30;" vertex="1" parent="1">
          <mxGeometry x="144" y="420" width="20" height="10" as="geometry" />
        </mxCell>
        <mxCell id="Qx5bWiszo8uC14fIzBrh-30" value="1" style="text;html=1;align=center;verticalAlign=middle;whiteSpace=wrap;rounded=0;fontFamily=Helvetica;fontSize=11;fontColor=default;labelBackgroundColor=default;" vertex="1" parent="1">
          <mxGeometry x="214" y="280" width="10" height="5" as="geometry" />
        </mxCell>
        <mxCell id="Qx5bWiszo8uC14fIzBrh-31" value="N" style="text;html=1;align=center;verticalAlign=middle;whiteSpace=wrap;rounded=0;fontFamily=Helvetica;fontSize=11;fontColor=default;labelBackgroundColor=default;" vertex="1" parent="1">
          <mxGeometry x="214" y="350" width="10" height="5" as="geometry" />
        </mxCell>
        <mxCell id="Qx5bWiszo8uC14fIzBrh-34" style="edgeStyle=none;shape=connector;rounded=0;orthogonalLoop=1;jettySize=auto;html=1;exitX=0.5;exitY=1;exitDx=0;exitDy=0;entryX=0.5;entryY=0;entryDx=0;entryDy=0;strokeColor=default;align=center;verticalAlign=middle;fontFamily=Helvetica;fontSize=11;fontColor=default;labelBackgroundColor=default;endArrow=none;endFill=0;" edge="1" parent="1" source="Qx5bWiszo8uC14fIzBrh-33" target="Qx5bWiszo8uC14fIzBrh-6">
          <mxGeometry relative="1" as="geometry" />
        </mxCell>
        <mxCell id="Qx5bWiszo8uC14fIzBrh-35" style="edgeStyle=none;shape=connector;rounded=0;orthogonalLoop=1;jettySize=auto;html=1;exitX=0.5;exitY=0;exitDx=0;exitDy=0;entryX=0.5;entryY=1;entryDx=0;entryDy=0;strokeColor=default;align=center;verticalAlign=middle;fontFamily=Helvetica;fontSize=11;fontColor=default;labelBackgroundColor=default;endArrow=none;endFill=0;" edge="1" parent="1" source="Qx5bWiszo8uC14fIzBrh-33" target="Qx5bWiszo8uC14fIzBrh-5">
          <mxGeometry relative="1" as="geometry" />
        </mxCell>
        <mxCell id="Qx5bWiszo8uC14fIzBrh-33" value="Solicita" style="shape=rhombus;perimeter=rhombusPerimeter;whiteSpace=wrap;html=1;align=center;" vertex="1" parent="1">
          <mxGeometry x="174" y="470" width="120" height="60" as="geometry" />
        </mxCell>
        <mxCell id="Qx5bWiszo8uC14fIzBrh-36" value="1" style="text;html=1;align=center;verticalAlign=middle;whiteSpace=wrap;rounded=0;fontFamily=Helvetica;fontSize=11;fontColor=default;labelBackgroundColor=default;" vertex="1" parent="1">
          <mxGeometry x="214" y="530" width="10" height="5" as="geometry" />
        </mxCell>
        <mxCell id="Qx5bWiszo8uC14fIzBrh-37" value="N" style="text;html=1;align=center;verticalAlign=middle;whiteSpace=wrap;rounded=0;fontFamily=Helvetica;fontSize=11;fontColor=default;labelBackgroundColor=default;" vertex="1" parent="1">
          <mxGeometry x="214" y="465" width="10" height="5" as="geometry" />
        </mxCell>
        <mxCell id="Qx5bWiszo8uC14fIzBrh-62" style="edgeStyle=none;shape=connector;rounded=0;orthogonalLoop=1;jettySize=auto;html=1;exitX=1;exitY=0.5;exitDx=0;exitDy=0;entryX=0;entryY=0.5;entryDx=0;entryDy=0;strokeColor=default;align=center;verticalAlign=middle;fontFamily=Helvetica;fontSize=11;fontColor=default;labelBackgroundColor=default;endArrow=none;endFill=0;" edge="1" parent="1" source="Qx5bWiszo8uC14fIzBrh-61" target="Qx5bWiszo8uC14fIzBrh-6">
          <mxGeometry relative="1" as="geometry" />
        </mxCell>
        <mxCell id="Qx5bWiszo8uC14fIzBrh-61" value="Professor/Aluno" style="ellipse;whiteSpace=wrap;html=1;align=right;dashed=1;fontFamily=Helvetica;fontSize=11;fontColor=default;labelBackgroundColor=default;spacing=30;" vertex="1" parent="1">
          <mxGeometry x="144" y="585" width="20" height="10" as="geometry" />
        </mxCell>
        <mxCell id="Qx5bWiszo8uC14fIzBrh-73" style="edgeStyle=none;shape=connector;rounded=0;orthogonalLoop=1;jettySize=auto;html=1;exitX=0.5;exitY=1;exitDx=0;exitDy=0;entryX=0.5;entryY=0;entryDx=0;entryDy=0;strokeColor=default;align=center;verticalAlign=middle;fontFamily=Helvetica;fontSize=11;fontColor=default;labelBackgroundColor=default;endArrow=none;endFill=0;" edge="1" parent="1" source="Qx5bWiszo8uC14fIzBrh-63" target="Qx5bWiszo8uC14fIzBrh-66">
          <mxGeometry relative="1" as="geometry" />
        </mxCell>
        <mxCell id="Qx5bWiszo8uC14fIzBrh-86" style="edgeStyle=none;shape=connector;rounded=0;orthogonalLoop=1;jettySize=auto;html=1;exitX=1;exitY=1;exitDx=0;exitDy=0;entryX=0;entryY=0.5;entryDx=0;entryDy=0;strokeColor=default;align=center;verticalAlign=middle;fontFamily=Helvetica;fontSize=11;fontColor=default;labelBackgroundColor=default;endArrow=none;endFill=0;" edge="1" parent="1" source="Qx5bWiszo8uC14fIzBrh-63" target="Qx5bWiszo8uC14fIzBrh-85">
          <mxGeometry relative="1" as="geometry" />
        </mxCell>
        <mxCell id="Qx5bWiszo8uC14fIzBrh-95" style="edgeStyle=none;shape=connector;rounded=0;orthogonalLoop=1;jettySize=auto;html=1;exitX=1;exitY=0;exitDx=0;exitDy=0;entryX=0;entryY=1;entryDx=0;entryDy=0;strokeColor=default;align=center;verticalAlign=middle;fontFamily=Helvetica;fontSize=11;fontColor=default;labelBackgroundColor=default;endArrow=none;endFill=0;" edge="1" parent="1" source="Qx5bWiszo8uC14fIzBrh-63" target="Qx5bWiszo8uC14fIzBrh-94">
          <mxGeometry relative="1" as="geometry" />
        </mxCell>
        <mxCell id="Qx5bWiszo8uC14fIzBrh-99" style="edgeStyle=none;shape=connector;rounded=0;orthogonalLoop=1;jettySize=auto;html=1;exitX=1;exitY=0;exitDx=0;exitDy=0;entryX=0;entryY=1;entryDx=0;entryDy=0;strokeColor=default;align=center;verticalAlign=middle;fontFamily=Helvetica;fontSize=11;fontColor=default;labelBackgroundColor=default;endArrow=none;endFill=0;" edge="1" parent="1" source="Qx5bWiszo8uC14fIzBrh-63" target="Qx5bWiszo8uC14fIzBrh-98">
          <mxGeometry relative="1" as="geometry" />
        </mxCell>
        <mxCell id="Qx5bWiszo8uC14fIzBrh-63" value="Ficha" style="whiteSpace=wrap;html=1;align=center;" vertex="1" parent="1">
          <mxGeometry x="484" y="390" width="100" height="40" as="geometry" />
        </mxCell>
        <mxCell id="Qx5bWiszo8uC14fIzBrh-64" value="Bibliotecária" style="whiteSpace=wrap;html=1;align=center;" vertex="1" parent="1">
          <mxGeometry x="484" y="570" width="100" height="40" as="geometry" />
        </mxCell>
        <mxCell id="Qx5bWiszo8uC14fIzBrh-72" style="edgeStyle=none;shape=connector;rounded=0;orthogonalLoop=1;jettySize=auto;html=1;exitX=1;exitY=0.5;exitDx=0;exitDy=0;entryX=0;entryY=0.5;entryDx=0;entryDy=0;strokeColor=default;align=center;verticalAlign=middle;fontFamily=Helvetica;fontSize=11;fontColor=default;labelBackgroundColor=default;endArrow=none;endFill=0;" edge="1" parent="1" source="Qx5bWiszo8uC14fIzBrh-65" target="Qx5bWiszo8uC14fIzBrh-64">
          <mxGeometry relative="1" as="geometry" />
        </mxCell>
        <mxCell id="Qx5bWiszo8uC14fIzBrh-65" value="Fornece_infos" style="shape=rhombus;perimeter=rhombusPerimeter;whiteSpace=wrap;html=1;align=center;fontFamily=Helvetica;fontSize=11;fontColor=default;labelBackgroundColor=default;" vertex="1" parent="1">
          <mxGeometry x="324" y="560" width="120" height="60" as="geometry" />
        </mxCell>
        <mxCell id="Qx5bWiszo8uC14fIzBrh-74" style="edgeStyle=none;shape=connector;rounded=0;orthogonalLoop=1;jettySize=auto;html=1;exitX=0.5;exitY=1;exitDx=0;exitDy=0;entryX=0.5;entryY=0;entryDx=0;entryDy=0;strokeColor=default;align=center;verticalAlign=middle;fontFamily=Helvetica;fontSize=11;fontColor=default;labelBackgroundColor=default;endArrow=none;endFill=0;" edge="1" parent="1" source="Qx5bWiszo8uC14fIzBrh-66" target="Qx5bWiszo8uC14fIzBrh-64">
          <mxGeometry relative="1" as="geometry" />
        </mxCell>
        <mxCell id="Qx5bWiszo8uC14fIzBrh-66" value="Preenche" style="shape=rhombus;perimeter=rhombusPerimeter;whiteSpace=wrap;html=1;align=center;fontFamily=Helvetica;fontSize=11;fontColor=default;labelBackgroundColor=default;" vertex="1" parent="1">
          <mxGeometry x="474" y="470" width="120" height="60" as="geometry" />
        </mxCell>
        <mxCell id="Qx5bWiszo8uC14fIzBrh-82" style="edgeStyle=none;shape=connector;rounded=0;orthogonalLoop=1;jettySize=auto;html=1;exitX=1;exitY=0;exitDx=0;exitDy=0;entryX=0;entryY=1;entryDx=0;entryDy=0;strokeColor=default;align=center;verticalAlign=middle;fontFamily=Helvetica;fontSize=11;fontColor=default;labelBackgroundColor=default;endArrow=none;endFill=0;" edge="1" parent="1" source="Qx5bWiszo8uC14fIzBrh-80" target="Qx5bWiszo8uC14fIzBrh-63">
          <mxGeometry relative="1" as="geometry" />
        </mxCell>
        <mxCell id="Qx5bWiszo8uC14fIzBrh-80" value="Possui" style="shape=rhombus;perimeter=rhombusPerimeter;whiteSpace=wrap;html=1;align=center;fontFamily=Helvetica;fontSize=11;fontColor=default;labelBackgroundColor=default;" vertex="1" parent="1">
          <mxGeometry x="324" y="470" width="120" height="60" as="geometry" />
        </mxCell>
        <mxCell id="Qx5bWiszo8uC14fIzBrh-84" style="edgeStyle=none;shape=connector;rounded=0;orthogonalLoop=1;jettySize=auto;html=1;exitX=0;exitY=0.5;exitDx=0;exitDy=0;entryX=1;entryY=0.5;entryDx=0;entryDy=0;strokeColor=default;align=center;verticalAlign=middle;fontFamily=Helvetica;fontSize=11;fontColor=default;labelBackgroundColor=default;endArrow=none;endFill=0;" edge="1" parent="1" source="Qx5bWiszo8uC14fIzBrh-83" target="Qx5bWiszo8uC14fIzBrh-63">
          <mxGeometry relative="1" as="geometry" />
        </mxCell>
        <mxCell id="Qx5bWiszo8uC14fIzBrh-83" value="RG" style="ellipse;whiteSpace=wrap;html=1;align=left;fontStyle=4;fontFamily=Helvetica;fontSize=11;fontColor=default;labelBackgroundColor=default;spacing=30;" vertex="1" parent="1">
          <mxGeometry x="614" y="405" width="20" height="10" as="geometry" />
        </mxCell>
        <mxCell id="Qx5bWiszo8uC14fIzBrh-89" style="edgeStyle=none;shape=connector;rounded=0;orthogonalLoop=1;jettySize=auto;html=1;exitX=1;exitY=1;exitDx=0;exitDy=0;entryX=0;entryY=0.5;entryDx=0;entryDy=0;strokeColor=default;align=center;verticalAlign=middle;fontFamily=Helvetica;fontSize=11;fontColor=default;labelBackgroundColor=default;endArrow=none;endFill=0;" edge="1" parent="1" source="Qx5bWiszo8uC14fIzBrh-85" target="Qx5bWiszo8uC14fIzBrh-87">
          <mxGeometry relative="1" as="geometry" />
        </mxCell>
        <mxCell id="Qx5bWiszo8uC14fIzBrh-91" style="edgeStyle=none;shape=connector;rounded=0;orthogonalLoop=1;jettySize=auto;html=1;exitX=0.5;exitY=1;exitDx=0;exitDy=0;entryX=0.5;entryY=0;entryDx=0;entryDy=0;strokeColor=default;align=center;verticalAlign=middle;fontFamily=Helvetica;fontSize=11;fontColor=default;labelBackgroundColor=default;endArrow=none;endFill=0;" edge="1" parent="1" source="Qx5bWiszo8uC14fIzBrh-85" target="Qx5bWiszo8uC14fIzBrh-88">
          <mxGeometry relative="1" as="geometry" />
        </mxCell>
        <mxCell id="Qx5bWiszo8uC14fIzBrh-85" value="Nome" style="ellipse;whiteSpace=wrap;html=1;align=left;spacing=30;" vertex="1" parent="1">
          <mxGeometry x="614" y="430" width="20" height="10" as="geometry" />
        </mxCell>
        <mxCell id="Qx5bWiszo8uC14fIzBrh-87" value="p_nome" style="ellipse;whiteSpace=wrap;html=1;align=left;spacing=30;" vertex="1" parent="1">
          <mxGeometry x="664" y="455" width="20" height="10" as="geometry" />
        </mxCell>
        <mxCell id="Qx5bWiszo8uC14fIzBrh-88" value="sobrenome" style="ellipse;whiteSpace=wrap;html=1;align=left;spacing=30;" vertex="1" parent="1">
          <mxGeometry x="614" y="480" width="20" height="10" as="geometry" />
        </mxCell>
        <mxCell id="Qx5bWiszo8uC14fIzBrh-93" style="edgeStyle=none;shape=connector;rounded=0;orthogonalLoop=1;jettySize=auto;html=1;exitX=0;exitY=0.5;exitDx=0;exitDy=0;entryX=1;entryY=0;entryDx=0;entryDy=0;strokeColor=default;align=center;verticalAlign=middle;fontFamily=Helvetica;fontSize=11;fontColor=default;labelBackgroundColor=default;endArrow=none;endFill=0;" edge="1" parent="1" source="Qx5bWiszo8uC14fIzBrh-92" target="Qx5bWiszo8uC14fIzBrh-63">
          <mxGeometry relative="1" as="geometry" />
        </mxCell>
        <mxCell id="Qx5bWiszo8uC14fIzBrh-92" value="Títulos_&lt;br&gt;Livros" style="ellipse;whiteSpace=wrap;html=1;align=left;spacing=30;" vertex="1" parent="1">
          <mxGeometry x="614" y="380" width="20" height="10" as="geometry" />
        </mxCell>
        <mxCell id="Qx5bWiszo8uC14fIzBrh-94" value="Matrícula" style="ellipse;whiteSpace=wrap;html=1;align=left;spacing=30;" vertex="1" parent="1">
          <mxGeometry x="634" y="355" width="20" height="10" as="geometry" />
        </mxCell>
        <mxCell id="Qx5bWiszo8uC14fIzBrh-98" value="Curso/Nome_&lt;br&gt;do_deparamento" style="ellipse;whiteSpace=wrap;html=1;align=left;dashed=1;fontFamily=Helvetica;fontSize=11;fontColor=default;labelBackgroundColor=default;spacing=30;" vertex="1" parent="1">
          <mxGeometry x="604" y="330" width="20" height="10" as="geometry" />
        </mxCell>
        <mxCell id="Qx5bWiszo8uC14fIzBrh-103" style="edgeStyle=none;shape=connector;rounded=0;orthogonalLoop=1;jettySize=auto;html=1;exitX=1;exitY=0.5;exitDx=0;exitDy=0;entryX=0;entryY=0;entryDx=0;entryDy=0;strokeColor=default;align=center;verticalAlign=middle;fontFamily=Helvetica;fontSize=11;fontColor=default;labelBackgroundColor=default;endArrow=none;endFill=0;" edge="1" parent="1" source="Qx5bWiszo8uC14fIzBrh-100" target="Qx5bWiszo8uC14fIzBrh-63">
          <mxGeometry relative="1" as="geometry" />
        </mxCell>
        <mxCell id="Qx5bWiszo8uC14fIzBrh-100" value="Data&lt;br&gt;Empréstimo" style="ellipse;whiteSpace=wrap;html=1;align=right;spacing=30;" vertex="1" parent="1">
          <mxGeometry x="454" y="380" width="20" height="10" as="geometry" />
        </mxCell>
        <mxCell id="Qx5bWiszo8uC14fIzBrh-102" style="edgeStyle=none;shape=connector;rounded=0;orthogonalLoop=1;jettySize=auto;html=1;exitX=1;exitY=0.5;exitDx=0;exitDy=0;entryX=0;entryY=0.75;entryDx=0;entryDy=0;strokeColor=default;align=center;verticalAlign=middle;fontFamily=Helvetica;fontSize=11;fontColor=default;labelBackgroundColor=default;endArrow=none;endFill=0;" edge="1" parent="1" source="Qx5bWiszo8uC14fIzBrh-101" target="Qx5bWiszo8uC14fIzBrh-63">
          <mxGeometry relative="1" as="geometry" />
        </mxCell>
        <mxCell id="Qx5bWiszo8uC14fIzBrh-101" value="Data&lt;br&gt;Devolução" style="ellipse;whiteSpace=wrap;html=1;align=right;spacing=30;" vertex="1" parent="1">
          <mxGeometry x="454" y="410" width="20" height="10" as="geometry" />
        </mxCell>
        <mxCell id="Qx5bWiszo8uC14fIzBrh-113" value="1" style="text;html=1;align=center;verticalAlign=middle;whiteSpace=wrap;rounded=0;fontFamily=Helvetica;fontSize=11;fontColor=default;labelBackgroundColor=default;" vertex="1" parent="1">
          <mxGeometry x="324" y="520" width="10" height="10" as="geometry" />
        </mxCell>
        <mxCell id="Qx5bWiszo8uC14fIzBrh-114" value="1" style="text;html=1;align=center;verticalAlign=middle;whiteSpace=wrap;rounded=0;fontFamily=Helvetica;fontSize=11;fontColor=default;labelBackgroundColor=default;" vertex="1" parent="1">
          <mxGeometry x="404" y="465" width="10" height="10" as="geometry" />
        </mxCell>
        <mxCell id="Qx5bWiszo8uC14fIzBrh-115" value="1" style="text;html=1;align=center;verticalAlign=middle;whiteSpace=wrap;rounded=0;fontFamily=Helvetica;fontSize=11;fontColor=default;labelBackgroundColor=default;" vertex="1" parent="1">
          <mxGeometry x="314" y="575" width="10" height="10" as="geometry" />
        </mxCell>
        <mxCell id="Qx5bWiszo8uC14fIzBrh-116" value="1" style="text;html=1;align=center;verticalAlign=middle;whiteSpace=wrap;rounded=0;fontFamily=Helvetica;fontSize=11;fontColor=default;labelBackgroundColor=default;" vertex="1" parent="1">
          <mxGeometry x="444" y="575" width="10" height="10" as="geometry" />
        </mxCell>
        <mxCell id="Qx5bWiszo8uC14fIzBrh-117" value="1" style="text;html=1;align=center;verticalAlign=middle;whiteSpace=wrap;rounded=0;fontFamily=Helvetica;fontSize=11;fontColor=default;labelBackgroundColor=default;" vertex="1" parent="1">
          <mxGeometry x="514" y="535" width="10" height="10" as="geometry" />
        </mxCell>
        <mxCell id="Qx5bWiszo8uC14fIzBrh-118" value="1" style="text;html=1;align=center;verticalAlign=middle;whiteSpace=wrap;rounded=0;fontFamily=Helvetica;fontSize=11;fontColor=default;labelBackgroundColor=default;" vertex="1" parent="1">
          <mxGeometry x="514" y="460" width="10" height="10" as="geometry" />
        </mxCell>
        <mxCell id="Qx5bWiszo8uC14fIzBrh-128" value="Multa" style="ellipse;whiteSpace=wrap;html=1;align=left;dashed=1;fontFamily=Helvetica;fontSize=11;fontColor=default;labelBackgroundColor=default;spacing=30;" vertex="1" parent="1">
          <mxGeometry x="504" y="340" width="20" height="10" as="geometry" />
        </mxCell>
        <mxCell id="Qx5bWiszo8uC14fIzBrh-129" style="edgeStyle=none;shape=connector;rounded=0;orthogonalLoop=1;jettySize=auto;html=1;exitX=0.5;exitY=1;exitDx=0;exitDy=0;entryX=0.32;entryY=-0.075;entryDx=0;entryDy=0;entryPerimeter=0;strokeColor=default;align=center;verticalAlign=middle;fontFamily=Helvetica;fontSize=11;fontColor=default;labelBackgroundColor=default;endArrow=none;endFill=0;" edge="1" parent="1" source="Qx5bWiszo8uC14fIzBrh-128" target="Qx5bWiszo8uC14fIzBrh-63">
          <mxGeometry relative="1" as="geometry" />
        </mxCell>
        <mxCell id="Qx5bWiszo8uC14fIzBrh-132" style="edgeStyle=none;shape=connector;rounded=0;orthogonalLoop=1;jettySize=auto;html=1;exitX=0;exitY=0;exitDx=0;exitDy=0;entryX=0.5;entryY=0;entryDx=0;entryDy=0;strokeColor=default;align=center;verticalAlign=middle;fontFamily=Helvetica;fontSize=11;fontColor=default;labelBackgroundColor=default;endArrow=none;endFill=0;" edge="1" parent="1" source="Qx5bWiszo8uC14fIzBrh-128" target="Qx5bWiszo8uC14fIzBrh-128">
          <mxGeometry relative="1" as="geometry" />
        </mxCell>
      </root>
    </mxGraphModel>
  </diagram>
</mxfile>
